<?xml version="1.0" encoding="UTF-8" standalone="no"?>
<!DOCTYPE svg PUBLIC "-//W3C//DTD SVG 1.1//EN" "http://www.w3.org/Graphics/SVG/1.1/DTD/svg11.dtd">
<!-- Generated by graphviz version 2.40.1 (20161225.0304)
 -->
<!-- Title: G Pages: 1 -->
<svg width="513pt" height="257pt" viewBox="0.00 0.00 513.03 256.60" xmlns="http://www.w3.org/2000/svg" xmlns:xlink="http://www.w3.org/1999/xlink">
<g id="graph0" class="graph" transform="scale(1 1) rotate(0) translate(4 252.6)">
<title>G</title>
<polygon fill="#ffffff" stroke="transparent" points="-4,4 -4,-252.6 509.0285,-252.6 509.0285,4 -4,4"/>
<!-- Lipo -->
<g id="node1" class="node">
<title>Lipo</title>
<polygon fill="none" stroke="#000000" points="15.3923,-.5 15.3923,-50.1 110.5127,-50.1 110.5127,-.5 15.3923,-.5"/>
<text text-anchor="middle" x="27.3396" y="-33.5" font-family="Times,serif" font-size="14.00" fill="#000000">-</text>
<polyline fill="none" stroke="#000000" points="15.3923,-25.3 39.2869,-25.3 "/>
<text text-anchor="middle" x="27.3396" y="-8.7" font-family="Times,serif" font-size="14.00" fill="#000000">+</text>
<polyline fill="none" stroke="#000000" points="39.2869,-.5 39.2869,-50.1 "/>
<text text-anchor="middle" x="74.8998" y="-21.1" font-family="Times,serif" font-size="14.00" fill="#000000">LiPo 3.7v</text>
</g>
<!-- TP4056 -->
<g id="node2" class="node">
<title>TP4056</title>
<polygon fill="none" stroke="#000000" points="29.445,-99.5 29.445,-149.1 162.46,-149.1 162.46,-99.5 29.445,-99.5"/>
<text text-anchor="middle" x="44.8923" y="-132.5" font-family="Times,serif" font-size="14.00" fill="#000000">b+</text>
<polyline fill="none" stroke="#000000" points="29.445,-124.3 60.3396,-124.3 "/>
<text text-anchor="middle" x="44.8923" y="-107.7" font-family="Times,serif" font-size="14.00" fill="#000000">b-</text>
<polyline fill="none" stroke="#000000" points="60.3396,-99.5 60.3396,-149.1 "/>
<text text-anchor="middle" x="90.5072" y="-120.1" font-family="Times,serif" font-size="14.00" fill="#000000">TP4056</text>
<polyline fill="none" stroke="#000000" points="120.6748,-99.5 120.6748,-149.1 "/>
<text text-anchor="middle" x="141.5674" y="-132.5" font-family="Times,serif" font-size="14.00" fill="#000000">out+</text>
<polyline fill="none" stroke="#000000" points="120.6748,-124.3 162.46,-124.3 "/>
<text text-anchor="middle" x="141.5674" y="-107.7" font-family="Times,serif" font-size="14.00" fill="#000000">out-</text>
</g>
<!-- TP4056&#45;&#45;Lipo -->
<g id="edge1" class="edge">
<title>TP4056:BIN--Lipo:IN</title>
<path fill="none" stroke="#ff0000" d="M28.9525,-136.3C1.4427,-136.3 -12.5573,-13.3 14.9525,-13.3"/>
</g>
<!-- TP4056&#45;&#45;Lipo -->
<g id="edge2" class="edge">
<title>TP4056:BOUT--Lipo:OUT</title>
<path fill="none" stroke="#000000" d="M44.9525,-99.3C44.9525,-76.0993 26.9525,-73.5007 26.9525,-50.3"/>
</g>
<!-- Boost -->
<g id="node3" class="node">
<title>Boost</title>
<polygon fill="none" stroke="#000000" points="128.5746,-.5 128.5746,-50.1 305.3304,-50.1 305.3304,-.5 128.5746,-.5"/>
<text text-anchor="middle" x="161.3502" y="-33.5" font-family="Times,serif" font-size="14.00" fill="#000000">in-</text>
<polyline fill="none" stroke="#000000" points="194.1258,-25.3 194.1258,-50.1 "/>
<text text-anchor="middle" x="228.5184" y="-33.5" font-family="Times,serif" font-size="14.00" fill="#000000">in+</text>
<polyline fill="none" stroke="#000000" points="128.5746,-25.3 263.5452,-25.3 "/>
<text text-anchor="middle" x="196.0599" y="-8.7" font-family="Times,serif" font-size="14.00" fill="#000000">Boost Converter (v8)</text>
<polyline fill="none" stroke="#000000" points="263.5452,-.5 263.5452,-50.1 "/>
<text text-anchor="middle" x="284.4378" y="-33.5" font-family="Times,serif" font-size="14.00" fill="#000000">out+</text>
<polyline fill="none" stroke="#000000" points="263.5452,-25.3 305.3304,-25.3 "/>
<text text-anchor="middle" x="284.4378" y="-8.7" font-family="Times,serif" font-size="14.00" fill="#000000">out-</text>
</g>
<!-- TP4056&#45;&#45;Boost -->
<g id="edge3" class="edge">
<title>TP4056:OUT1--Boost:IN1</title>
<path fill="none" stroke="#ff0000" d="M162.9525,-136.3C188.3057,-136.3 175.3947,-106.6184 190.9525,-86.6 205.285,-68.1582 228.9525,-73.6563 228.9525,-50.3"/>
</g>
<!-- TP4056&#45;&#45;Boost -->
<g id="edge4" class="edge">
<title>TP4056:s--Boost:n</title>
<path fill="none" stroke="#000000" d="M141.9525,-99.3C141.9525,-75.9423 160.9525,-73.6577 160.9525,-50.3"/>
</g>
<!-- ESP8266 -->
<g id="node4" class="node">
<title>ESP8266</title>
<polygon fill="none" stroke="#000000" points="200.3557,-87.1 200.3557,-161.5 287.5493,-161.5 287.5493,-87.1 200.3557,-87.1"/>
<text text-anchor="middle" x="221.909" y="-144.9" font-family="Times,serif" font-size="14.00" fill="#000000">D1</text>
<polyline fill="none" stroke="#000000" points="243.4623,-136.7 243.4623,-161.5 "/>
<text text-anchor="middle" x="265.0156" y="-144.9" font-family="Times,serif" font-size="14.00" fill="#000000">D2</text>
<polyline fill="none" stroke="#000000" points="200.3557,-136.7 287.5493,-136.7 "/>
<text text-anchor="middle" x="243.9525" y="-120.1" font-family="Times,serif" font-size="14.00" fill="#000000">ESP8266</text>
<polyline fill="none" stroke="#000000" points="200.3557,-111.9 287.5493,-111.9 "/>
<text text-anchor="middle" x="220.7926" y="-95.3" font-family="Times,serif" font-size="14.00" fill="#000000">VIN</text>
<polyline fill="none" stroke="#000000" points="241.2295,-87.1 241.2295,-111.9 "/>
<text text-anchor="middle" x="264.3894" y="-95.3" font-family="Times,serif" font-size="14.00" fill="#000000">GND</text>
</g>
<!-- ESP8266&#45;&#45;Boost -->
<g id="edge5" class="edge">
<title>ESP8266:VIN--Boost:OUT1</title>
<path fill="none" stroke="#ff0000" d="M220.9525,-87.3C220.9525,-54.8282 283.9525,-82.7718 283.9525,-50.3"/>
</g>
<!-- ESP8266&#45;&#45;Boost -->
<g id="edge6" class="edge">
<title>ESP8266:GND--Boost:OUT2</title>
<path fill="none" stroke="#000000" d="M263.9525,-87.3C263.9525,-62.8439 294.9727,-72.9272 304.9525,-50.6 311.7175,-35.4653 321.5303,-13.3 304.9525,-13.3"/>
</g>
<!-- Buck -->
<g id="node5" class="node">
<title>Buck</title>
<polygon fill="none" stroke="#000000" points="305.5184,-87.1 305.5184,-161.5 416.3866,-161.5 416.3866,-87.1 305.5184,-87.1"/>
<text text-anchor="middle" x="333.911" y="-144.9" font-family="Times,serif" font-size="14.00" fill="#000000">out+</text>
<polyline fill="none" stroke="#000000" points="362.3036,-136.7 362.3036,-161.5 "/>
<text text-anchor="middle" x="389.0792" y="-144.9" font-family="Times,serif" font-size="14.00" fill="#000000">out-</text>
<polyline fill="none" stroke="#000000" points="305.5184,-136.7 416.3866,-136.7 "/>
<text text-anchor="middle" x="360.9525" y="-120.1" font-family="Times,serif" font-size="14.00" fill="#000000">DC-DC 360 (6v)</text>
<polyline fill="none" stroke="#000000" points="305.5184,-111.9 416.3866,-111.9 "/>
<text text-anchor="middle" x="333.911" y="-95.3" font-family="Times,serif" font-size="14.00" fill="#000000">in+</text>
<polyline fill="none" stroke="#000000" points="362.3036,-87.1 362.3036,-111.9 "/>
<text text-anchor="middle" x="389.0792" y="-95.3" font-family="Times,serif" font-size="14.00" fill="#000000">in-</text>
</g>
<!-- Buck&#45;&#45;Boost -->
<g id="edge7" class="edge">
<title>Buck:IN1--Boost:OUT1</title>
<path fill="none" stroke="#ff0000" d="M305.9525,-99.3C278.3934,-99.3 332.5117,-37.3 304.9525,-37.3"/>
</g>
<!-- Buck&#45;&#45;Boost -->
<g id="edge8" class="edge">
<title>Buck:IN2--Boost:OUT2</title>
<path fill="none" stroke="#000000" d="M388.9525,-87.3C388.9525,-37.546 354.7065,-13.3 304.9525,-13.3"/>
</g>
<!-- ServoL -->
<g id="node6" class="node">
<title>ServoL</title>
<path fill="none" stroke="#000000" d="M211.2685,-198.5C211.2685,-198.5 330.6365,-198.5 330.6365,-198.5 336.6365,-198.5 342.6365,-204.5 342.6365,-210.5 342.6365,-210.5 342.6365,-236.1 342.6365,-236.1 342.6365,-242.1 336.6365,-248.1 330.6365,-248.1 330.6365,-248.1 211.2685,-248.1 211.2685,-248.1 205.2685,-248.1 199.2685,-242.1 199.2685,-236.1 199.2685,-236.1 199.2685,-210.5 199.2685,-210.5 199.2685,-204.5 205.2685,-198.5 211.2685,-198.5"/>
<text text-anchor="middle" x="223.9894" y="-219.5" font-family="Times,serif" font-size="14.00" fill="#000000">PWM</text>
<polyline fill="none" stroke="#000000" points="248.7103,-198.5 248.7103,-248.1 "/>
<text text-anchor="middle" x="283.7261" y="-219.1" font-family="Times,serif" font-size="14.00" fill="#000000">Servo (L)</text>
<polyline fill="none" stroke="#000000" points="318.7419,-198.5 318.7419,-248.1 "/>
<text text-anchor="middle" x="330.6892" y="-231.5" font-family="Times,serif" font-size="14.00" fill="#000000">+</text>
<polyline fill="none" stroke="#000000" points="318.7419,-223.3 342.6365,-223.3 "/>
<text text-anchor="middle" x="330.6892" y="-206.7" font-family="Times,serif" font-size="14.00" fill="#000000">-</text>
</g>
<!-- ServoL&#45;&#45;ESP8266 -->
<g id="edge11" class="edge">
<title>ServoL:PWM--ESP8266:A9</title>
<path fill="none" stroke="#ffa500" d="M223.9525,-199.3C223.9525,-182.3877 221.9525,-178.2123 221.9525,-161.3"/>
</g>
<!-- ServoL&#45;&#45;Buck -->
<g id="edge9" class="edge">
<title>ServoL:IN--Buck:n</title>
<path fill="none" stroke="#ff0000" d="M342.9525,-235.3C358.6952,-235.3 333.9525,-163.6631 333.9525,-161.3"/>
</g>
<!-- ServoL&#45;&#45;Buck -->
<g id="edge10" class="edge">
<title>ServoL:OUT--Buck:OUT2</title>
<path fill="none" stroke="#000000" d="M330.9525,-198.3C330.9525,-167.7236 388.9525,-191.8764 388.9525,-161.3"/>
</g>
<!-- ServoR -->
<g id="node7" class="node">
<title>ServoR</title>
<path fill="none" stroke="#000000" d="M372.8765,-198.5C372.8765,-198.5 493.0285,-198.5 493.0285,-198.5 499.0285,-198.5 505.0285,-204.5 505.0285,-210.5 505.0285,-210.5 505.0285,-236.1 505.0285,-236.1 505.0285,-242.1 499.0285,-248.1 493.0285,-248.1 493.0285,-248.1 372.8765,-248.1 372.8765,-248.1 366.8765,-248.1 360.8765,-242.1 360.8765,-236.1 360.8765,-236.1 360.8765,-210.5 360.8765,-210.5 360.8765,-204.5 366.8765,-198.5 372.8765,-198.5"/>
<text text-anchor="middle" x="372.8238" y="-231.5" font-family="Times,serif" font-size="14.00" fill="#000000">+</text>
<polyline fill="none" stroke="#000000" points="360.8765,-223.3 384.7711,-223.3 "/>
<text text-anchor="middle" x="372.8238" y="-206.7" font-family="Times,serif" font-size="14.00" fill="#000000">-</text>
<polyline fill="none" stroke="#000000" points="384.7711,-198.5 384.7711,-248.1 "/>
<text text-anchor="middle" x="420.1789" y="-219.1" font-family="Times,serif" font-size="14.00" fill="#000000">Servo (R)</text>
<polyline fill="none" stroke="#000000" points="455.5867,-198.5 455.5867,-248.1 "/>
<text text-anchor="middle" x="480.3076" y="-219.5" font-family="Times,serif" font-size="14.00" fill="#000000">PWM</text>
</g>
<!-- ServoR&#45;&#45;ESP8266 -->
<g id="edge14" class="edge">
<title>ServoR:PWM--ESP8266:n</title>
<path fill="none" stroke="#ffa500" d="M479.9525,-199.3C479.9525,-102.2634 264.9525,-258.3366 264.9525,-161.3"/>
</g>
<!-- ServoR&#45;&#45;Buck -->
<g id="edge12" class="edge">
<title>ServoR:IN--Buck:OUT1</title>
<path fill="none" stroke="#ff0000" d="M360.9525,-235.3C343.899,-235.3 357.742,-214.0407 351.9525,-198 345.7849,-180.9116 333.9525,-179.4673 333.9525,-161.3"/>
</g>
<!-- ServoR&#45;&#45;Buck -->
<g id="edge13" class="edge">
<title>ServoR:OUT--Buck:n</title>
<path fill="none" stroke="#000000" d="M372.9525,-198.3C372.9525,-180.3839 388.9525,-179.2161 388.9525,-161.3"/>
</g>
</g>
</svg>